<?xml version="1.0" encoding="utf-8" standalone="no"?>
<!DOCTYPE svg PUBLIC "-//W3C//DTD SVG 1.1//EN"
  "http://www.w3.org/Graphics/SVG/1.1/DTD/svg11.dtd">
<svg xmlns:xlink="http://www.w3.org/1999/xlink" width="362.940825pt" height="237.662731pt" viewBox="0 0 362.940825 237.662731" xmlns="http://www.w3.org/2000/svg" version="1.1">
 <metadata>
  <rdf:RDF xmlns:dc="http://purl.org/dc/elements/1.1/" xmlns:cc="http://creativecommons.org/ns#" xmlns:rdf="http://www.w3.org/1999/02/22-rdf-syntax-ns#">
   <cc:Work>
    <dc:type rdf:resource="http://purl.org/dc/dcmitype/StillImage"/>
    <dc:date>2026-05-26T20:21:38.366035</dc:date>
    <dc:format>image/svg+xml</dc:format>
    <dc:creator>
     <cc:Agent>
      <dc:title>Matplotlib v3.7.2, https://matplotlib.org/</dc:title>
     </cc:Agent>
    </dc:creator>
   </cc:Work>
  </rdf:RDF>
 </metadata>
 <defs>
  <style type="text/css">*{stroke-linejoin: round; stroke-linecap: butt}</style>
 </defs>
 <g id="figure_1">
  <g id="patch_1">
   <path d="M 0 237.662731 
L 362.940825 237.662731 
L 362.940825 0 
L 0 0 
z
" style="fill: #ffffff"/>
  </g>
  <g id="axes_1">
   <g id="patch_2">
    <path d="M 65.759375 189.0432 
L 248.783375 189.0432 
L 248.783375 7.2 
L 65.759375 7.2 
z
" style="fill: #ffffff"/>
   </g>
   <g id="line2d_1">
    <path d="M 157.271375 98.1216 
L 99.643909 106.660075 
" clip-path="url(#p90706d2d6f)" style="fill: none; stroke-dasharray: 5.55,2.4; stroke-dashoffset: 0; stroke: #ffa07a; stroke-width: 1.5"/>
   </g>
   <g id="PathCollection_1">
    <defs>
     <path id="me692d49887" d="M -3.535534 -6.123724 
L -7.071068 -0 
L -3.535534 6.123724 
L 3.535534 6.123724 
L 7.071068 0 
L 3.535534 -6.123724 
z
" style="stroke: #000000; stroke-width: 1.5"/>
    </defs>
    <g clip-path="url(#p90706d2d6f)">
     <use xlink:href="#me692d49887" x="99.643909" y="106.660075" style="fill: #ffa07a; stroke: #000000; stroke-width: 1.5"/>
    </g>
   </g>
   <g id="line2d_2">
    <path d="M 157.271375 98.1216 
L 213.184064 97.99642 
" clip-path="url(#p90706d2d6f)" style="fill: none; stroke-dasharray: 5.55,2.4; stroke-dashoffset: 0; stroke: #8b5a2b; stroke-width: 1.5"/>
   </g>
   <g id="PathCollection_2">
    <defs>
     <path id="m8d3339dbd0" d="M -3.535534 -6.123724 
L -7.071068 -0 
L -3.535534 6.123724 
L 3.535534 6.123724 
L 7.071068 0 
L 3.535534 -6.123724 
z
" style="stroke: #000000; stroke-width: 1.5"/>
    </defs>
    <g clip-path="url(#p90706d2d6f)">
     <use xlink:href="#m8d3339dbd0" x="213.184064" y="97.99642" style="fill: #8b5a2b; stroke: #000000; stroke-width: 1.5"/>
    </g>
   </g>
   <g id="line2d_3">
    <path d="M 157.271375 98.1216 
L 101.166052 102.06601 
" clip-path="url(#p90706d2d6f)" style="fill: none; stroke-dasharray: 5.55,2.4; stroke-dashoffset: 0; stroke: #e42747; stroke-width: 1.5"/>
   </g>
   <g id="PathCollection_3">
    <defs>
     <path id="m6d4b21502e" d="M -3.535534 -6.123724 
L -7.071068 -0 
L -3.535534 6.123724 
L 3.535534 6.123724 
L 7.071068 0 
L 3.535534 -6.123724 
z
" style="stroke: #000000; stroke-width: 1.5"/>
    </defs>
    <g clip-path="url(#p90706d2d6f)">
     <use xlink:href="#m6d4b21502e" x="101.166052" y="102.06601" style="fill: #e42747; stroke: #000000; stroke-width: 1.5"/>
    </g>
   </g>
   <g id="line2d_4">
    <path d="M 157.271375 98.1216 
L 119.575178 63.311214 
" clip-path="url(#p90706d2d6f)" style="fill: none; stroke-dasharray: 5.55,2.4; stroke-dashoffset: 0; stroke: #ff6b6b; stroke-width: 1.5"/>
   </g>
   <g id="PathCollection_4">
    <defs>
     <path id="m9cc5166e1d" d="M -3.535534 -6.123724 
L -7.071068 -0 
L -3.535534 6.123724 
L 3.535534 6.123724 
L 7.071068 0 
L 3.535534 -6.123724 
z
" style="stroke: #000000; stroke-width: 1.5"/>
    </defs>
    <g clip-path="url(#p90706d2d6f)">
     <use xlink:href="#m9cc5166e1d" x="119.575178" y="63.311214" style="fill: #ff6b6b; stroke: #000000; stroke-width: 1.5"/>
    </g>
   </g>
   <g id="line2d_5">
    <path d="M 157.271375 98.1216 
L 108.161183 140.924954 
" clip-path="url(#p90706d2d6f)" style="fill: none; stroke-dasharray: 5.55,2.4; stroke-dashoffset: 0; stroke: #f70084; stroke-width: 1.5"/>
   </g>
   <g id="PathCollection_5">
    <defs>
     <path id="m27c95712cf" d="M -3.535534 -6.123724 
L -7.071068 -0 
L -3.535534 6.123724 
L 3.535534 6.123724 
L 7.071068 0 
L 3.535534 -6.123724 
z
" style="stroke: #000000; stroke-width: 1.5"/>
    </defs>
    <g clip-path="url(#p90706d2d6f)">
     <use xlink:href="#m27c95712cf" x="108.161183" y="140.924954" style="fill: #f70084; stroke: #000000; stroke-width: 1.5"/>
    </g>
   </g>
   <g id="line2d_6">
    <path d="M 157.271375 98.1216 
L 198.223552 52.871562 
" clip-path="url(#p90706d2d6f)" style="fill: none; stroke-dasharray: 5.55,2.4; stroke-dashoffset: 0; stroke: #00aa7f; stroke-width: 1.5"/>
   </g>
   <g id="PathCollection_6">
    <defs>
     <path id="m87eb32cc4e" d="M -3.535534 -6.123724 
L -7.071068 -0 
L -3.535534 6.123724 
L 3.535534 6.123724 
L 7.071068 0 
L 3.535534 -6.123724 
z
" style="stroke: #000000; stroke-width: 1.5"/>
    </defs>
    <g clip-path="url(#p90706d2d6f)">
     <use xlink:href="#m87eb32cc4e" x="198.223552" y="52.871562" style="fill: #00aa7f; stroke: #000000; stroke-width: 1.5"/>
    </g>
   </g>
   <g id="line2d_7">
    <path d="M 157.271375 98.1216 
L 166.911865 158.002046 
" clip-path="url(#p90706d2d6f)" style="fill: none; stroke-dasharray: 5.55,2.4; stroke-dashoffset: 0; stroke: #5f0e3d; stroke-width: 1.5"/>
   </g>
   <g id="PathCollection_7">
    <defs>
     <path id="m5b8337ba34" d="M -3.535534 -6.123724 
L -7.071068 -0 
L -3.535534 6.123724 
L 3.535534 6.123724 
L 7.071068 0 
L 3.535534 -6.123724 
z
" style="stroke: #000000; stroke-width: 1.5"/>
    </defs>
    <g clip-path="url(#p90706d2d6f)">
     <use xlink:href="#m5b8337ba34" x="166.911865" y="158.002046" style="fill: #5f0e3d; stroke: #000000; stroke-width: 1.5"/>
    </g>
   </g>
   <g id="PathCollection_8">
    <defs>
     <path id="mff5bd46147" d="M 0 6.123724 
C 1.624031 6.123724 3.181764 5.47849 4.330127 4.330127 
C 5.47849 3.181764 6.123724 1.624031 6.123724 0 
C 6.123724 -1.624031 5.47849 -3.181764 4.330127 -4.330127 
C 3.181764 -5.47849 1.624031 -6.123724 0 -6.123724 
C -1.624031 -6.123724 -3.181764 -5.47849 -4.330127 -4.330127 
C -5.47849 -3.181764 -6.123724 -1.624031 -6.123724 0 
C -6.123724 1.624031 -5.47849 3.181764 -4.330127 4.330127 
C -3.181764 5.47849 -1.624031 6.123724 0 6.123724 
z
" style="stroke: #000000; stroke-width: 1.5"/>
    </defs>
    <g clip-path="url(#p90706d2d6f)">
     <use xlink:href="#mff5bd46147" x="157.271375" y="98.1216" style="fill: #6495ed; stroke: #000000; stroke-width: 1.5"/>
    </g>
   </g>
   <g id="PathCollection_9">
    <defs>
     <path id="mb0ca886dee" d="M -6.123724 6.123724 
L 6.123724 6.123724 
L 6.123724 -6.123724 
L -6.123724 -6.123724 
z
" style="stroke: #000000; stroke-width: 1.5"/>
    </defs>
    <g clip-path="url(#p90706d2d6f)">
     <use xlink:href="#mb0ca886dee" x="173.999427" y="88.021235" style="fill: #8fbc8f; stroke: #000000; stroke-width: 1.5"/>
    </g>
   </g>
   <g id="PathCollection_10"/>
   <g id="matplotlib.axis_1">
    <g id="xtick_1">
     <g id="line2d_8">
      <path d="M 74.078648 189.0432 
L 74.078648 7.2 
" clip-path="url(#p90706d2d6f)" style="fill: none; stroke-dasharray: 5.55,2.4; stroke-dashoffset: 0; stroke: #b0b0b0; stroke-opacity: 0.3; stroke-width: 1.5"/>
     </g>
     <g id="line2d_9">
      <defs>
       <path id="m129b676058" d="M 0 0 
L 0 3.5 
" style="stroke: #000000; stroke-width: 0.8"/>
      </defs>
      <g>
       <use xlink:href="#m129b676058" x="74.078648" y="189.0432" style="stroke: #000000; stroke-width: 0.8"/>
      </g>
     </g>
     <g id="text_1">
      <!-- −50 -->
      <g transform="translate(58.250132 207.440856) scale(0.15 -0.15)">
       <defs>
        <path id="DejaVuSans-2212" d="M 678 2272 
L 4684 2272 
L 4684 1741 
L 678 1741 
L 678 2272 
z
" transform="scale(0.015625)"/>
        <path id="DejaVuSans-35" d="M 691 4666 
L 3169 4666 
L 3169 4134 
L 1269 4134 
L 1269 2991 
Q 1406 3038 1543 3061 
Q 1681 3084 1819 3084 
Q 2600 3084 3056 2656 
Q 3513 2228 3513 1497 
Q 3513 744 3044 326 
Q 2575 -91 1722 -91 
Q 1428 -91 1123 -41 
Q 819 9 494 109 
L 494 744 
Q 775 591 1075 516 
Q 1375 441 1709 441 
Q 2250 441 2565 725 
Q 2881 1009 2881 1497 
Q 2881 1984 2565 2268 
Q 2250 2553 1709 2553 
Q 1456 2553 1204 2497 
Q 953 2441 691 2322 
L 691 4666 
z
" transform="scale(0.015625)"/>
        <path id="DejaVuSans-30" d="M 2034 4250 
Q 1547 4250 1301 3770 
Q 1056 3291 1056 2328 
Q 1056 1369 1301 889 
Q 1547 409 2034 409 
Q 2525 409 2770 889 
Q 3016 1369 3016 2328 
Q 3016 3291 2770 3770 
Q 2525 4250 2034 4250 
z
M 2034 4750 
Q 2819 4750 3233 4129 
Q 3647 3509 3647 2328 
Q 3647 1150 3233 529 
Q 2819 -91 2034 -91 
Q 1250 -91 836 529 
Q 422 1150 422 2328 
Q 422 3509 836 4129 
Q 1250 4750 2034 4750 
z
" transform="scale(0.015625)"/>
       </defs>
       <use xlink:href="#DejaVuSans-2212"/>
       <use xlink:href="#DejaVuSans-35" x="83.789062"/>
       <use xlink:href="#DejaVuSans-30" x="147.412109"/>
      </g>
     </g>
    </g>
    <g id="xtick_2">
     <g id="line2d_10">
      <path d="M 115.675011 189.0432 
L 115.675011 7.2 
" clip-path="url(#p90706d2d6f)" style="fill: none; stroke-dasharray: 5.55,2.4; stroke-dashoffset: 0; stroke: #b0b0b0; stroke-opacity: 0.3; stroke-width: 1.5"/>
     </g>
     <g id="line2d_11">
      <g>
       <use xlink:href="#m129b676058" x="115.675011" y="189.0432" style="stroke: #000000; stroke-width: 0.8"/>
      </g>
     </g>
     <g id="text_2">
      <!-- −25 -->
      <g transform="translate(99.846496 207.440856) scale(0.15 -0.15)">
       <defs>
        <path id="DejaVuSans-32" d="M 1228 531 
L 3431 531 
L 3431 0 
L 469 0 
L 469 531 
Q 828 903 1448 1529 
Q 2069 2156 2228 2338 
Q 2531 2678 2651 2914 
Q 2772 3150 2772 3378 
Q 2772 3750 2511 3984 
Q 2250 4219 1831 4219 
Q 1534 4219 1204 4116 
Q 875 4013 500 3803 
L 500 4441 
Q 881 4594 1212 4672 
Q 1544 4750 1819 4750 
Q 2544 4750 2975 4387 
Q 3406 4025 3406 3419 
Q 3406 3131 3298 2873 
Q 3191 2616 2906 2266 
Q 2828 2175 2409 1742 
Q 1991 1309 1228 531 
z
" transform="scale(0.015625)"/>
       </defs>
       <use xlink:href="#DejaVuSans-2212"/>
       <use xlink:href="#DejaVuSans-32" x="83.789062"/>
       <use xlink:href="#DejaVuSans-35" x="147.412109"/>
      </g>
     </g>
    </g>
    <g id="xtick_3">
     <g id="line2d_12">
      <path d="M 157.271375 189.0432 
L 157.271375 7.2 
" clip-path="url(#p90706d2d6f)" style="fill: none; stroke-dasharray: 5.55,2.4; stroke-dashoffset: 0; stroke: #b0b0b0; stroke-opacity: 0.3; stroke-width: 1.5"/>
     </g>
     <g id="line2d_13">
      <g>
       <use xlink:href="#m129b676058" x="157.271375" y="189.0432" style="stroke: #000000; stroke-width: 0.8"/>
      </g>
     </g>
     <g id="text_3">
      <!-- 0 -->
      <g transform="translate(152.4995 207.440856) scale(0.15 -0.15)">
       <use xlink:href="#DejaVuSans-30"/>
      </g>
     </g>
    </g>
    <g id="xtick_4">
     <g id="line2d_14">
      <path d="M 198.867739 189.0432 
L 198.867739 7.2 
" clip-path="url(#p90706d2d6f)" style="fill: none; stroke-dasharray: 5.55,2.4; stroke-dashoffset: 0; stroke: #b0b0b0; stroke-opacity: 0.3; stroke-width: 1.5"/>
     </g>
     <g id="line2d_15">
      <g>
       <use xlink:href="#m129b676058" x="198.867739" y="189.0432" style="stroke: #000000; stroke-width: 0.8"/>
      </g>
     </g>
     <g id="text_4">
      <!-- 25 -->
      <g transform="translate(189.323989 207.440856) scale(0.15 -0.15)">
       <use xlink:href="#DejaVuSans-32"/>
       <use xlink:href="#DejaVuSans-35" x="63.623047"/>
      </g>
     </g>
    </g>
    <g id="xtick_5">
     <g id="line2d_16">
      <path d="M 240.464102 189.0432 
L 240.464102 7.2 
" clip-path="url(#p90706d2d6f)" style="fill: none; stroke-dasharray: 5.55,2.4; stroke-dashoffset: 0; stroke: #b0b0b0; stroke-opacity: 0.3; stroke-width: 1.5"/>
     </g>
     <g id="line2d_17">
      <g>
       <use xlink:href="#m129b676058" x="240.464102" y="189.0432" style="stroke: #000000; stroke-width: 0.8"/>
      </g>
     </g>
     <g id="text_5">
      <!-- 50 -->
      <g transform="translate(230.920352 207.440856) scale(0.15 -0.15)">
       <use xlink:href="#DejaVuSans-35"/>
       <use xlink:href="#DejaVuSans-30" x="63.623047"/>
      </g>
     </g>
    </g>
    <g id="text_6">
     <!-- X (Å) -->
     <g transform="translate(138.767469 227.3432) scale(0.15 -0.15)">
      <defs>
       <path id="DejaVuSans-58" d="M 403 4666 
L 1081 4666 
L 2241 2931 
L 3406 4666 
L 4084 4666 
L 2584 2425 
L 4184 0 
L 3506 0 
L 2194 1984 
L 872 0 
L 191 0 
L 1856 2491 
L 403 4666 
z
" transform="scale(0.015625)"/>
       <path id="DejaVuSans-20" transform="scale(0.015625)"/>
       <path id="DejaVuSans-28" d="M 1984 4856 
Q 1566 4138 1362 3434 
Q 1159 2731 1159 2009 
Q 1159 1288 1364 580 
Q 1569 -128 1984 -844 
L 1484 -844 
Q 1016 -109 783 600 
Q 550 1309 550 2009 
Q 550 2706 781 3412 
Q 1013 4119 1484 4856 
L 1984 4856 
z
" transform="scale(0.015625)"/>
       <path id="DejaVuSans-c5" d="M 2663 5081 
Q 2663 5278 2523 5417 
Q 2384 5556 2188 5556 
Q 1988 5556 1852 5420 
Q 1716 5284 1716 5081 
Q 1716 4884 1853 4746 
Q 1991 4609 2188 4609 
Q 2384 4609 2523 4746 
Q 2663 4884 2663 5081 
z
M 2188 4044 
L 1338 1722 
L 3041 1722 
L 2188 4044 
z
M 1716 4366 
Q 1525 4494 1428 4673 
Q 1331 4853 1331 5081 
Q 1331 5441 1579 5691 
Q 1828 5941 2188 5941 
Q 2544 5941 2795 5689 
Q 3047 5438 3047 5081 
Q 3047 4863 2948 4678 
Q 2850 4494 2663 4366 
L 4325 0 
L 3669 0 
L 3244 1197 
L 1141 1197 
L 716 0 
L 50 0 
L 1716 4366 
z
" transform="scale(0.015625)"/>
       <path id="DejaVuSans-29" d="M 513 4856 
L 1013 4856 
Q 1481 4119 1714 3412 
Q 1947 2706 1947 2009 
Q 1947 1309 1714 600 
Q 1481 -109 1013 -844 
L 513 -844 
Q 928 -128 1133 580 
Q 1338 1288 1338 2009 
Q 1338 2731 1133 3434 
Q 928 4138 513 4856 
z
" transform="scale(0.015625)"/>
      </defs>
      <use xlink:href="#DejaVuSans-58"/>
      <use xlink:href="#DejaVuSans-20" x="68.505859"/>
      <use xlink:href="#DejaVuSans-28" x="100.292969"/>
      <use xlink:href="#DejaVuSans-c5" x="139.306641"/>
      <use xlink:href="#DejaVuSans-29" x="207.714844"/>
     </g>
    </g>
   </g>
   <g id="matplotlib.axis_2">
    <g id="ytick_1">
     <g id="line2d_18">
      <path d="M 65.759375 181.314327 
L 248.783375 181.314327 
" clip-path="url(#p90706d2d6f)" style="fill: none; stroke-dasharray: 5.55,2.4; stroke-dashoffset: 0; stroke: #b0b0b0; stroke-opacity: 0.3; stroke-width: 1.5"/>
     </g>
     <g id="line2d_19">
      <defs>
       <path id="mb38c513943" d="M 0 0 
L -3.5 0 
" style="stroke: #000000; stroke-width: 0.8"/>
      </defs>
      <g>
       <use xlink:href="#mb38c513943" x="65.759375" y="181.314327" style="stroke: #000000; stroke-width: 0.8"/>
      </g>
     </g>
     <g id="text_7">
      <!-- −50 -->
      <g transform="translate(27.102344 187.013155) scale(0.15 -0.15)">
       <use xlink:href="#DejaVuSans-2212"/>
       <use xlink:href="#DejaVuSans-35" x="83.789062"/>
       <use xlink:href="#DejaVuSans-30" x="147.412109"/>
      </g>
     </g>
    </g>
    <g id="ytick_2">
     <g id="line2d_20">
      <path d="M 65.759375 139.717964 
L 248.783375 139.717964 
" clip-path="url(#p90706d2d6f)" style="fill: none; stroke-dasharray: 5.55,2.4; stroke-dashoffset: 0; stroke: #b0b0b0; stroke-opacity: 0.3; stroke-width: 1.5"/>
     </g>
     <g id="line2d_21">
      <g>
       <use xlink:href="#mb38c513943" x="65.759375" y="139.717964" style="stroke: #000000; stroke-width: 0.8"/>
      </g>
     </g>
     <g id="text_8">
      <!-- −25 -->
      <g transform="translate(27.102344 145.416792) scale(0.15 -0.15)">
       <use xlink:href="#DejaVuSans-2212"/>
       <use xlink:href="#DejaVuSans-32" x="83.789062"/>
       <use xlink:href="#DejaVuSans-35" x="147.412109"/>
      </g>
     </g>
    </g>
    <g id="ytick_3">
     <g id="line2d_22">
      <path d="M 65.759375 98.1216 
L 248.783375 98.1216 
" clip-path="url(#p90706d2d6f)" style="fill: none; stroke-dasharray: 5.55,2.4; stroke-dashoffset: 0; stroke: #b0b0b0; stroke-opacity: 0.3; stroke-width: 1.5"/>
     </g>
     <g id="line2d_23">
      <g>
       <use xlink:href="#mb38c513943" x="65.759375" y="98.1216" style="stroke: #000000; stroke-width: 0.8"/>
      </g>
     </g>
     <g id="text_9">
      <!-- 0 -->
      <g transform="translate(49.215625 103.820428) scale(0.15 -0.15)">
       <use xlink:href="#DejaVuSans-30"/>
      </g>
     </g>
    </g>
    <g id="ytick_4">
     <g id="line2d_24">
      <path d="M 65.759375 56.525236 
L 248.783375 56.525236 
" clip-path="url(#p90706d2d6f)" style="fill: none; stroke-dasharray: 5.55,2.4; stroke-dashoffset: 0; stroke: #b0b0b0; stroke-opacity: 0.3; stroke-width: 1.5"/>
     </g>
     <g id="line2d_25">
      <g>
       <use xlink:href="#mb38c513943" x="65.759375" y="56.525236" style="stroke: #000000; stroke-width: 0.8"/>
      </g>
     </g>
     <g id="text_10">
      <!-- 25 -->
      <g transform="translate(39.671875 62.224064) scale(0.15 -0.15)">
       <use xlink:href="#DejaVuSans-32"/>
       <use xlink:href="#DejaVuSans-35" x="63.623047"/>
      </g>
     </g>
    </g>
    <g id="ytick_5">
     <g id="line2d_26">
      <path d="M 65.759375 14.928873 
L 248.783375 14.928873 
" clip-path="url(#p90706d2d6f)" style="fill: none; stroke-dasharray: 5.55,2.4; stroke-dashoffset: 0; stroke: #b0b0b0; stroke-opacity: 0.3; stroke-width: 1.5"/>
     </g>
     <g id="line2d_27">
      <g>
       <use xlink:href="#mb38c513943" x="65.759375" y="14.928873" style="stroke: #000000; stroke-width: 0.8"/>
      </g>
     </g>
     <g id="text_11">
      <!-- 50 -->
      <g transform="translate(39.671875 20.627701) scale(0.15 -0.15)">
       <use xlink:href="#DejaVuSans-35"/>
       <use xlink:href="#DejaVuSans-30" x="63.623047"/>
      </g>
     </g>
    </g>
    <g id="text_12">
     <!-- Y (Å) -->
     <g transform="translate(19.982812 116.068866) rotate(-90) scale(0.15 -0.15)">
      <defs>
       <path id="DejaVuSans-59" d="M -13 4666 
L 666 4666 
L 1959 2747 
L 3244 4666 
L 3922 4666 
L 2272 2222 
L 2272 0 
L 1638 0 
L 1638 2222 
L -13 4666 
z
" transform="scale(0.015625)"/>
      </defs>
      <use xlink:href="#DejaVuSans-59"/>
      <use xlink:href="#DejaVuSans-20" x="61.083984"/>
      <use xlink:href="#DejaVuSans-28" x="92.871094"/>
      <use xlink:href="#DejaVuSans-c5" x="131.884766"/>
      <use xlink:href="#DejaVuSans-29" x="200.292969"/>
     </g>
    </g>
   </g>
   <g id="line2d_28">
    <path d="M 65.759375 98.1216 
L 248.783375 98.1216 
" clip-path="url(#p90706d2d6f)" style="fill: none; stroke: #808080; stroke-opacity: 0.3; stroke-width: 1.5; stroke-linecap: square"/>
   </g>
   <g id="line2d_29">
    <path d="M 157.271375 189.0432 
L 157.271375 7.2 
" clip-path="url(#p90706d2d6f)" style="fill: none; stroke: #808080; stroke-opacity: 0.3; stroke-width: 1.5; stroke-linecap: square"/>
   </g>
   <g id="line2d_30">
    <path d="M 157.271375 98.1216 
L 173.999427 88.021235 
" clip-path="url(#p90706d2d6f)" style="fill: none; stroke: #000000; stroke-width: 1.5; stroke-linecap: square"/>
   </g>
   <g id="line2d_31">
    <path d="M 176.812233 98.1216 
L 176.77289 96.882242 
L 176.655023 95.647875 
L 176.459104 94.423468 
L 176.185923 93.213953 
L 175.836579 92.024199 
L 175.412481 90.858997 
L 174.915334 89.723039 
L 174.347141 88.620899 
L 173.71019 87.557015 
L 173.007046 86.535671 
L 172.24054 85.560979 
L 171.413759 84.636864 
L 170.530031 83.767048 
L 169.592915 82.955033 
L 168.606184 82.204087 
L 167.573813 81.517236 
L 166.499957 80.897245 
L 165.388941 80.346611 
L 164.245238 79.86755 
L 163.073454 79.461991 
L 161.878307 79.131569 
L 160.664609 78.877612 
L 159.437248 78.701144 
L 158.201166 78.602876 
L 156.96134 78.583202 
L 155.722763 78.642203 
L 154.490421 78.77964 
L 153.269277 78.994961 
L 152.064248 79.287298 
L 150.880187 79.655474 
L 149.72186 80.098006 
L 148.593933 80.613113 
L 147.500946 81.198721 
L 146.447302 81.852471 
L 145.437242 82.571731 
L 144.474835 83.353605 
L 143.563954 84.194945 
L 142.708269 85.092362 
L 141.911223 86.042243 
L 141.176028 87.040764 
L 140.505643 88.083903 
L 139.902768 89.167461 
L 139.36983 90.287074 
L 138.908975 91.438233 
L 138.52206 92.616304 
L 138.210641 93.816543 
L 137.975972 95.034117 
L 137.819 96.264123 
L 137.740355 97.501609 
L 137.740355 98.741591 
L 137.819 99.979077 
L 137.975972 101.209083 
L 138.210641 102.426657 
L 138.52206 103.626896 
L 138.908975 104.804967 
L 139.36983 105.956126 
L 139.902768 107.075739 
L 140.505643 108.159297 
L 141.176028 109.202436 
L 141.911223 110.200957 
L 142.708269 111.150838 
L 143.563954 112.048255 
L 144.474835 112.889595 
L 145.437242 113.671469 
L 146.447302 114.390729 
L 147.500946 115.044479 
L 148.593933 115.630087 
L 149.72186 116.145194 
L 150.880187 116.587726 
L 152.064248 116.955902 
L 153.269277 117.248239 
L 154.490421 117.46356 
L 155.722763 117.600997 
L 156.96134 117.659998 
L 158.201166 117.640324 
L 159.437248 117.542056 
L 160.664609 117.365588 
L 161.878307 117.111631 
L 163.073454 116.781209 
L 164.245238 116.37565 
L 165.388941 115.896589 
L 166.499957 115.345955 
L 167.573813 114.725964 
L 168.606184 114.039113 
L 169.592915 113.288167 
L 170.530031 112.476152 
L 171.413759 111.606336 
L 172.24054 110.682221 
L 173.007046 109.707529 
L 173.71019 108.686185 
L 174.347141 107.622301 
L 174.915334 106.520161 
L 175.412481 105.384203 
L 175.836579 104.219001 
L 176.185923 103.029247 
L 176.459104 101.819732 
L 176.655023 100.595325 
L 176.77289 99.360958 
L 176.812233 98.1216 
" clip-path="url(#p90706d2d6f)" style="fill: none; stroke-dasharray: 5.55,2.4; stroke-dashoffset: 0; stroke: #000000; stroke-opacity: 0.3; stroke-width: 1.5"/>
   </g>
   <g id="line2d_32">
    <path d="M 176.812233 98.1216 
L 176.77289 96.882242 
L 176.655023 95.647875 
L 176.459104 94.423468 
L 176.185923 93.213953 
L 175.836579 92.024199 
L 175.412481 90.858997 
L 174.915334 89.723039 
L 174.347141 88.620899 
L 173.71019 87.557015 
L 173.007046 86.535671 
L 172.24054 85.560979 
L 171.413759 84.636864 
L 170.530031 83.767048 
L 169.592915 82.955033 
L 168.606184 82.204087 
L 167.573813 81.517236 
L 166.499957 80.897245 
L 165.388941 80.346611 
L 164.245238 79.86755 
L 163.073454 79.461991 
L 161.878307 79.131569 
L 160.664609 78.877612 
L 159.437248 78.701144 
L 158.201166 78.602876 
L 156.96134 78.583202 
L 155.722763 78.642203 
L 154.490421 78.77964 
L 153.269277 78.994961 
L 152.064248 79.287298 
L 150.880187 79.655474 
L 149.72186 80.098006 
L 148.593933 80.613113 
L 147.500946 81.198721 
L 146.447302 81.852471 
L 145.437242 82.571731 
L 144.474835 83.353605 
L 143.563954 84.194945 
L 142.708269 85.092362 
L 141.911223 86.042243 
L 141.176028 87.040764 
L 140.505643 88.083903 
L 139.902768 89.167461 
L 139.36983 90.287074 
L 138.908975 91.438233 
L 138.52206 92.616304 
L 138.210641 93.816543 
L 137.975972 95.034117 
L 137.819 96.264123 
L 137.740355 97.501609 
L 137.740355 98.741591 
L 137.819 99.979077 
L 137.975972 101.209083 
L 138.210641 102.426657 
L 138.52206 103.626896 
L 138.908975 104.804967 
L 139.36983 105.956126 
L 139.902768 107.075739 
L 140.505643 108.159297 
L 141.176028 109.202436 
L 141.911223 110.200957 
L 142.708269 111.150838 
L 143.563954 112.048255 
L 144.474835 112.889595 
L 145.437242 113.671469 
L 146.447302 114.390729 
L 147.500946 115.044479 
L 148.593933 115.630087 
L 149.72186 116.145194 
L 150.880187 116.587726 
L 152.064248 116.955902 
L 153.269277 117.248239 
L 154.490421 117.46356 
L 155.722763 117.600997 
L 156.96134 117.659998 
L 158.201166 117.640324 
L 159.437248 117.542056 
L 160.664609 117.365588 
L 161.878307 117.111631 
L 163.073454 116.781209 
L 164.245238 116.37565 
L 165.388941 115.896589 
L 166.499957 115.345955 
L 167.573813 114.725964 
L 168.606184 114.039113 
L 169.592915 113.288167 
L 170.530031 112.476152 
L 171.413759 111.606336 
L 172.24054 110.682221 
L 173.007046 109.707529 
L 173.71019 108.686185 
L 174.347141 107.622301 
L 174.915334 106.520161 
L 175.412481 105.384203 
L 175.836579 104.219001 
L 176.185923 103.029247 
L 176.459104 101.819732 
L 176.655023 100.595325 
L 176.77289 99.360958 
L 176.812233 98.1216 
" clip-path="url(#p90706d2d6f)" style="fill: none; stroke-dasharray: 5.55,2.4; stroke-dashoffset: 0; stroke: #000000; stroke-opacity: 0.3; stroke-width: 1.5"/>
   </g>
   <g id="line2d_33">
    <path d="M 176.812233 98.1216 
L 176.77289 96.882242 
L 176.655023 95.647875 
L 176.459104 94.423468 
L 176.185923 93.213953 
L 175.836579 92.024199 
L 175.412481 90.858997 
L 174.915334 89.723039 
L 174.347141 88.620899 
L 173.71019 87.557015 
L 173.007046 86.535671 
L 172.24054 85.560979 
L 171.413759 84.636864 
L 170.530031 83.767048 
L 169.592915 82.955033 
L 168.606184 82.204087 
L 167.573813 81.517236 
L 166.499957 80.897245 
L 165.388941 80.346611 
L 164.245238 79.86755 
L 163.073454 79.461991 
L 161.878307 79.131569 
L 160.664609 78.877612 
L 159.437248 78.701144 
L 158.201166 78.602876 
L 156.96134 78.583202 
L 155.722763 78.642203 
L 154.490421 78.77964 
L 153.269277 78.994961 
L 152.064248 79.287298 
L 150.880187 79.655474 
L 149.72186 80.098006 
L 148.593933 80.613113 
L 147.500946 81.198721 
L 146.447302 81.852471 
L 145.437242 82.571731 
L 144.474835 83.353605 
L 143.563954 84.194945 
L 142.708269 85.092362 
L 141.911223 86.042243 
L 141.176028 87.040764 
L 140.505643 88.083903 
L 139.902768 89.167461 
L 139.36983 90.287074 
L 138.908975 91.438233 
L 138.52206 92.616304 
L 138.210641 93.816543 
L 137.975972 95.034117 
L 137.819 96.264123 
L 137.740355 97.501609 
L 137.740355 98.741591 
L 137.819 99.979077 
L 137.975972 101.209083 
L 138.210641 102.426657 
L 138.52206 103.626896 
L 138.908975 104.804967 
L 139.36983 105.956126 
L 139.902768 107.075739 
L 140.505643 108.159297 
L 141.176028 109.202436 
L 141.911223 110.200957 
L 142.708269 111.150838 
L 143.563954 112.048255 
L 144.474835 112.889595 
L 145.437242 113.671469 
L 146.447302 114.390729 
L 147.500946 115.044479 
L 148.593933 115.630087 
L 149.72186 116.145194 
L 150.880187 116.587726 
L 152.064248 116.955902 
L 153.269277 117.248239 
L 154.490421 117.46356 
L 155.722763 117.600997 
L 156.96134 117.659998 
L 158.201166 117.640324 
L 159.437248 117.542056 
L 160.664609 117.365588 
L 161.878307 117.111631 
L 163.073454 116.781209 
L 164.245238 116.37565 
L 165.388941 115.896589 
L 166.499957 115.345955 
L 167.573813 114.725964 
L 168.606184 114.039113 
L 169.592915 113.288167 
L 170.530031 112.476152 
L 171.413759 111.606336 
L 172.24054 110.682221 
L 173.007046 109.707529 
L 173.71019 108.686185 
L 174.347141 107.622301 
L 174.915334 106.520161 
L 175.412481 105.384203 
L 175.836579 104.219001 
L 176.185923 103.029247 
L 176.459104 101.819732 
L 176.655023 100.595325 
L 176.77289 99.360958 
L 176.812233 98.1216 
" clip-path="url(#p90706d2d6f)" style="fill: none; stroke-dasharray: 5.55,2.4; stroke-dashoffset: 0; stroke: #000000; stroke-opacity: 0.3; stroke-width: 1.5"/>
   </g>
   <g id="line2d_34">
    <path d="M 176.812233 98.1216 
L 176.77289 96.882242 
L 176.655023 95.647875 
L 176.459104 94.423468 
L 176.185923 93.213953 
L 175.836579 92.024199 
L 175.412481 90.858997 
L 174.915334 89.723039 
L 174.347141 88.620899 
L 173.71019 87.557015 
L 173.007046 86.535671 
L 172.24054 85.560979 
L 171.413759 84.636864 
L 170.530031 83.767048 
L 169.592915 82.955033 
L 168.606184 82.204087 
L 167.573813 81.517236 
L 166.499957 80.897245 
L 165.388941 80.346611 
L 164.245238 79.86755 
L 163.073454 79.461991 
L 161.878307 79.131569 
L 160.664609 78.877612 
L 159.437248 78.701144 
L 158.201166 78.602876 
L 156.96134 78.583202 
L 155.722763 78.642203 
L 154.490421 78.77964 
L 153.269277 78.994961 
L 152.064248 79.287298 
L 150.880187 79.655474 
L 149.72186 80.098006 
L 148.593933 80.613113 
L 147.500946 81.198721 
L 146.447302 81.852471 
L 145.437242 82.571731 
L 144.474835 83.353605 
L 143.563954 84.194945 
L 142.708269 85.092362 
L 141.911223 86.042243 
L 141.176028 87.040764 
L 140.505643 88.083903 
L 139.902768 89.167461 
L 139.36983 90.287074 
L 138.908975 91.438233 
L 138.52206 92.616304 
L 138.210641 93.816543 
L 137.975972 95.034117 
L 137.819 96.264123 
L 137.740355 97.501609 
L 137.740355 98.741591 
L 137.819 99.979077 
L 137.975972 101.209083 
L 138.210641 102.426657 
L 138.52206 103.626896 
L 138.908975 104.804967 
L 139.36983 105.956126 
L 139.902768 107.075739 
L 140.505643 108.159297 
L 141.176028 109.202436 
L 141.911223 110.200957 
L 142.708269 111.150838 
L 143.563954 112.048255 
L 144.474835 112.889595 
L 145.437242 113.671469 
L 146.447302 114.390729 
L 147.500946 115.044479 
L 148.593933 115.630087 
L 149.72186 116.145194 
L 150.880187 116.587726 
L 152.064248 116.955902 
L 153.269277 117.248239 
L 154.490421 117.46356 
L 155.722763 117.600997 
L 156.96134 117.659998 
L 158.201166 117.640324 
L 159.437248 117.542056 
L 160.664609 117.365588 
L 161.878307 117.111631 
L 163.073454 116.781209 
L 164.245238 116.37565 
L 165.388941 115.896589 
L 166.499957 115.345955 
L 167.573813 114.725964 
L 168.606184 114.039113 
L 169.592915 113.288167 
L 170.530031 112.476152 
L 171.413759 111.606336 
L 172.24054 110.682221 
L 173.007046 109.707529 
L 173.71019 108.686185 
L 174.347141 107.622301 
L 174.915334 106.520161 
L 175.412481 105.384203 
L 175.836579 104.219001 
L 176.185923 103.029247 
L 176.459104 101.819732 
L 176.655023 100.595325 
L 176.77289 99.360958 
L 176.812233 98.1216 
" clip-path="url(#p90706d2d6f)" style="fill: none; stroke-dasharray: 5.55,2.4; stroke-dashoffset: 0; stroke: #000000; stroke-opacity: 0.3; stroke-width: 1.5"/>
   </g>
   <g id="line2d_35">
    <path d="M 176.812233 98.1216 
L 176.77289 96.882242 
L 176.655023 95.647875 
L 176.459104 94.423468 
L 176.185923 93.213953 
L 175.836579 92.024199 
L 175.412481 90.858997 
L 174.915334 89.723039 
L 174.347141 88.620899 
L 173.71019 87.557015 
L 173.007046 86.535671 
L 172.24054 85.560979 
L 171.413759 84.636864 
L 170.530031 83.767048 
L 169.592915 82.955033 
L 168.606184 82.204087 
L 167.573813 81.517236 
L 166.499957 80.897245 
L 165.388941 80.346611 
L 164.245238 79.86755 
L 163.073454 79.461991 
L 161.878307 79.131569 
L 160.664609 78.877612 
L 159.437248 78.701144 
L 158.201166 78.602876 
L 156.96134 78.583202 
L 155.722763 78.642203 
L 154.490421 78.77964 
L 153.269277 78.994961 
L 152.064248 79.287298 
L 150.880187 79.655474 
L 149.72186 80.098006 
L 148.593933 80.613113 
L 147.500946 81.198721 
L 146.447302 81.852471 
L 145.437242 82.571731 
L 144.474835 83.353605 
L 143.563954 84.194945 
L 142.708269 85.092362 
L 141.911223 86.042243 
L 141.176028 87.040764 
L 140.505643 88.083903 
L 139.902768 89.167461 
L 139.36983 90.287074 
L 138.908975 91.438233 
L 138.52206 92.616304 
L 138.210641 93.816543 
L 137.975972 95.034117 
L 137.819 96.264123 
L 137.740355 97.501609 
L 137.740355 98.741591 
L 137.819 99.979077 
L 137.975972 101.209083 
L 138.210641 102.426657 
L 138.52206 103.626896 
L 138.908975 104.804967 
L 139.36983 105.956126 
L 139.902768 107.075739 
L 140.505643 108.159297 
L 141.176028 109.202436 
L 141.911223 110.200957 
L 142.708269 111.150838 
L 143.563954 112.048255 
L 144.474835 112.889595 
L 145.437242 113.671469 
L 146.447302 114.390729 
L 147.500946 115.044479 
L 148.593933 115.630087 
L 149.72186 116.145194 
L 150.880187 116.587726 
L 152.064248 116.955902 
L 153.269277 117.248239 
L 154.490421 117.46356 
L 155.722763 117.600997 
L 156.96134 117.659998 
L 158.201166 117.640324 
L 159.437248 117.542056 
L 160.664609 117.365588 
L 161.878307 117.111631 
L 163.073454 116.781209 
L 164.245238 116.37565 
L 165.388941 115.896589 
L 166.499957 115.345955 
L 167.573813 114.725964 
L 168.606184 114.039113 
L 169.592915 113.288167 
L 170.530031 112.476152 
L 171.413759 111.606336 
L 172.24054 110.682221 
L 173.007046 109.707529 
L 173.71019 108.686185 
L 174.347141 107.622301 
L 174.915334 106.520161 
L 175.412481 105.384203 
L 175.836579 104.219001 
L 176.185923 103.029247 
L 176.459104 101.819732 
L 176.655023 100.595325 
L 176.77289 99.360958 
L 176.812233 98.1216 
" clip-path="url(#p90706d2d6f)" style="fill: none; stroke-dasharray: 5.55,2.4; stroke-dashoffset: 0; stroke: #000000; stroke-opacity: 0.3; stroke-width: 1.5"/>
   </g>
   <g id="line2d_36">
    <path d="M 176.812233 98.1216 
L 176.77289 96.882242 
L 176.655023 95.647875 
L 176.459104 94.423468 
L 176.185923 93.213953 
L 175.836579 92.024199 
L 175.412481 90.858997 
L 174.915334 89.723039 
L 174.347141 88.620899 
L 173.71019 87.557015 
L 173.007046 86.535671 
L 172.24054 85.560979 
L 171.413759 84.636864 
L 170.530031 83.767048 
L 169.592915 82.955033 
L 168.606184 82.204087 
L 167.573813 81.517236 
L 166.499957 80.897245 
L 165.388941 80.346611 
L 164.245238 79.86755 
L 163.073454 79.461991 
L 161.878307 79.131569 
L 160.664609 78.877612 
L 159.437248 78.701144 
L 158.201166 78.602876 
L 156.96134 78.583202 
L 155.722763 78.642203 
L 154.490421 78.77964 
L 153.269277 78.994961 
L 152.064248 79.287298 
L 150.880187 79.655474 
L 149.72186 80.098006 
L 148.593933 80.613113 
L 147.500946 81.198721 
L 146.447302 81.852471 
L 145.437242 82.571731 
L 144.474835 83.353605 
L 143.563954 84.194945 
L 142.708269 85.092362 
L 141.911223 86.042243 
L 141.176028 87.040764 
L 140.505643 88.083903 
L 139.902768 89.167461 
L 139.36983 90.287074 
L 138.908975 91.438233 
L 138.52206 92.616304 
L 138.210641 93.816543 
L 137.975972 95.034117 
L 137.819 96.264123 
L 137.740355 97.501609 
L 137.740355 98.741591 
L 137.819 99.979077 
L 137.975972 101.209083 
L 138.210641 102.426657 
L 138.52206 103.626896 
L 138.908975 104.804967 
L 139.36983 105.956126 
L 139.902768 107.075739 
L 140.505643 108.159297 
L 141.176028 109.202436 
L 141.911223 110.200957 
L 142.708269 111.150838 
L 143.563954 112.048255 
L 144.474835 112.889595 
L 145.437242 113.671469 
L 146.447302 114.390729 
L 147.500946 115.044479 
L 148.593933 115.630087 
L 149.72186 116.145194 
L 150.880187 116.587726 
L 152.064248 116.955902 
L 153.269277 117.248239 
L 154.490421 117.46356 
L 155.722763 117.600997 
L 156.96134 117.659998 
L 158.201166 117.640324 
L 159.437248 117.542056 
L 160.664609 117.365588 
L 161.878307 117.111631 
L 163.073454 116.781209 
L 164.245238 116.37565 
L 165.388941 115.896589 
L 166.499957 115.345955 
L 167.573813 114.725964 
L 168.606184 114.039113 
L 169.592915 113.288167 
L 170.530031 112.476152 
L 171.413759 111.606336 
L 172.24054 110.682221 
L 173.007046 109.707529 
L 173.71019 108.686185 
L 174.347141 107.622301 
L 174.915334 106.520161 
L 175.412481 105.384203 
L 175.836579 104.219001 
L 176.185923 103.029247 
L 176.459104 101.819732 
L 176.655023 100.595325 
L 176.77289 99.360958 
L 176.812233 98.1216 
" clip-path="url(#p90706d2d6f)" style="fill: none; stroke-dasharray: 5.55,2.4; stroke-dashoffset: 0; stroke: #000000; stroke-opacity: 0.3; stroke-width: 1.5"/>
   </g>
   <g id="line2d_37">
    <path d="M 176.812233 98.1216 
L 176.77289 96.882242 
L 176.655023 95.647875 
L 176.459104 94.423468 
L 176.185923 93.213953 
L 175.836579 92.024199 
L 175.412481 90.858997 
L 174.915334 89.723039 
L 174.347141 88.620899 
L 173.71019 87.557015 
L 173.007046 86.535671 
L 172.24054 85.560979 
L 171.413759 84.636864 
L 170.530031 83.767048 
L 169.592915 82.955033 
L 168.606184 82.204087 
L 167.573813 81.517236 
L 166.499957 80.897245 
L 165.388941 80.346611 
L 164.245238 79.86755 
L 163.073454 79.461991 
L 161.878307 79.131569 
L 160.664609 78.877612 
L 159.437248 78.701144 
L 158.201166 78.602876 
L 156.96134 78.583202 
L 155.722763 78.642203 
L 154.490421 78.77964 
L 153.269277 78.994961 
L 152.064248 79.287298 
L 150.880187 79.655474 
L 149.72186 80.098006 
L 148.593933 80.613113 
L 147.500946 81.198721 
L 146.447302 81.852471 
L 145.437242 82.571731 
L 144.474835 83.353605 
L 143.563954 84.194945 
L 142.708269 85.092362 
L 141.911223 86.042243 
L 141.176028 87.040764 
L 140.505643 88.083903 
L 139.902768 89.167461 
L 139.36983 90.287074 
L 138.908975 91.438233 
L 138.52206 92.616304 
L 138.210641 93.816543 
L 137.975972 95.034117 
L 137.819 96.264123 
L 137.740355 97.501609 
L 137.740355 98.741591 
L 137.819 99.979077 
L 137.975972 101.209083 
L 138.210641 102.426657 
L 138.52206 103.626896 
L 138.908975 104.804967 
L 139.36983 105.956126 
L 139.902768 107.075739 
L 140.505643 108.159297 
L 141.176028 109.202436 
L 141.911223 110.200957 
L 142.708269 111.150838 
L 143.563954 112.048255 
L 144.474835 112.889595 
L 145.437242 113.671469 
L 146.447302 114.390729 
L 147.500946 115.044479 
L 148.593933 115.630087 
L 149.72186 116.145194 
L 150.880187 116.587726 
L 152.064248 116.955902 
L 153.269277 117.248239 
L 154.490421 117.46356 
L 155.722763 117.600997 
L 156.96134 117.659998 
L 158.201166 117.640324 
L 159.437248 117.542056 
L 160.664609 117.365588 
L 161.878307 117.111631 
L 163.073454 116.781209 
L 164.245238 116.37565 
L 165.388941 115.896589 
L 166.499957 115.345955 
L 167.573813 114.725964 
L 168.606184 114.039113 
L 169.592915 113.288167 
L 170.530031 112.476152 
L 171.413759 111.606336 
L 172.24054 110.682221 
L 173.007046 109.707529 
L 173.71019 108.686185 
L 174.347141 107.622301 
L 174.915334 106.520161 
L 175.412481 105.384203 
L 175.836579 104.219001 
L 176.185923 103.029247 
L 176.459104 101.819732 
L 176.655023 100.595325 
L 176.77289 99.360958 
L 176.812233 98.1216 
" clip-path="url(#p90706d2d6f)" style="fill: none; stroke-dasharray: 5.55,2.4; stroke-dashoffset: 0; stroke: #000000; stroke-opacity: 0.3; stroke-width: 1.5"/>
   </g>
   <g id="patch_3">
    <path d="M 65.759375 189.0432 
L 65.759375 7.2 
" style="fill: none; stroke: #000000; stroke-width: 0.8; stroke-linejoin: miter; stroke-linecap: square"/>
   </g>
   <g id="patch_4">
    <path d="M 248.783375 189.0432 
L 248.783375 7.2 
" style="fill: none; stroke: #000000; stroke-width: 0.8; stroke-linejoin: miter; stroke-linecap: square"/>
   </g>
   <g id="patch_5">
    <path d="M 65.759375 189.0432 
L 248.783375 189.0432 
" style="fill: none; stroke: #000000; stroke-width: 0.8; stroke-linejoin: miter; stroke-linecap: square"/>
   </g>
   <g id="patch_6">
    <path d="M 65.759375 7.2 
L 248.783375 7.2 
" style="fill: none; stroke: #000000; stroke-width: 0.8; stroke-linejoin: miter; stroke-linecap: square"/>
   </g>
   <g id="legend_1">
    <g id="patch_7">
     <path d="M 264.934575 73.9125 
L 353.740825 73.9125 
Q 355.740825 73.9125 355.740825 71.9125 
L 355.740825 14.2 
Q 355.740825 12.2 353.740825 12.2 
L 264.934575 12.2 
Q 262.934575 12.2 262.934575 14.2 
L 262.934575 71.9125 
Q 262.934575 73.9125 264.934575 73.9125 
z
" style="fill: #ffffff; opacity: 0.8; stroke: #cccccc; stroke-linejoin: miter"/>
    </g>
    <g id="PathCollection_11">
     <g>
      <use xlink:href="#mff5bd46147" x="276.934575" y="21.173438" style="fill: #6495ed; stroke: #000000; stroke-width: 1.5"/>
     </g>
    </g>
    <g id="text_13">
     <!-- SecY -->
     <g transform="translate(294.934575 23.798438) scale(0.1 -0.1)">
      <defs>
       <path id="DejaVuSans-53" d="M 3425 4513 
L 3425 3897 
Q 3066 4069 2747 4153 
Q 2428 4238 2131 4238 
Q 1616 4238 1336 4038 
Q 1056 3838 1056 3469 
Q 1056 3159 1242 3001 
Q 1428 2844 1947 2747 
L 2328 2669 
Q 3034 2534 3370 2195 
Q 3706 1856 3706 1288 
Q 3706 609 3251 259 
Q 2797 -91 1919 -91 
Q 1588 -91 1214 -16 
Q 841 59 441 206 
L 441 856 
Q 825 641 1194 531 
Q 1563 422 1919 422 
Q 2459 422 2753 634 
Q 3047 847 3047 1241 
Q 3047 1584 2836 1778 
Q 2625 1972 2144 2069 
L 1759 2144 
Q 1053 2284 737 2584 
Q 422 2884 422 3419 
Q 422 4038 858 4394 
Q 1294 4750 2059 4750 
Q 2388 4750 2728 4690 
Q 3069 4631 3425 4513 
z
" transform="scale(0.015625)"/>
       <path id="DejaVuSans-65" d="M 3597 1894 
L 3597 1613 
L 953 1613 
Q 991 1019 1311 708 
Q 1631 397 2203 397 
Q 2534 397 2845 478 
Q 3156 559 3463 722 
L 3463 178 
Q 3153 47 2828 -22 
Q 2503 -91 2169 -91 
Q 1331 -91 842 396 
Q 353 884 353 1716 
Q 353 2575 817 3079 
Q 1281 3584 2069 3584 
Q 2775 3584 3186 3129 
Q 3597 2675 3597 1894 
z
M 3022 2063 
Q 3016 2534 2758 2815 
Q 2500 3097 2075 3097 
Q 1594 3097 1305 2825 
Q 1016 2553 972 2059 
L 3022 2063 
z
" transform="scale(0.015625)"/>
       <path id="DejaVuSans-63" d="M 3122 3366 
L 3122 2828 
Q 2878 2963 2633 3030 
Q 2388 3097 2138 3097 
Q 1578 3097 1268 2742 
Q 959 2388 959 1747 
Q 959 1106 1268 751 
Q 1578 397 2138 397 
Q 2388 397 2633 464 
Q 2878 531 3122 666 
L 3122 134 
Q 2881 22 2623 -34 
Q 2366 -91 2075 -91 
Q 1284 -91 818 406 
Q 353 903 353 1747 
Q 353 2603 823 3093 
Q 1294 3584 2113 3584 
Q 2378 3584 2631 3529 
Q 2884 3475 3122 3366 
z
" transform="scale(0.015625)"/>
      </defs>
      <use xlink:href="#DejaVuSans-53"/>
      <use xlink:href="#DejaVuSans-65" x="63.476562"/>
      <use xlink:href="#DejaVuSans-63" x="125"/>
      <use xlink:href="#DejaVuSans-59" x="179.980469"/>
     </g>
    </g>
    <g id="PathCollection_12">
     <g>
      <use xlink:href="#mb0ca886dee" x="276.934575" y="35.851562" style="fill: #8fbc8f; stroke: #000000; stroke-width: 1.5"/>
     </g>
    </g>
    <g id="text_14">
     <!-- SecE -->
     <g transform="translate(294.934575 38.476562) scale(0.1 -0.1)">
      <defs>
       <path id="DejaVuSans-45" d="M 628 4666 
L 3578 4666 
L 3578 4134 
L 1259 4134 
L 1259 2753 
L 3481 2753 
L 3481 2222 
L 1259 2222 
L 1259 531 
L 3634 531 
L 3634 0 
L 628 0 
L 628 4666 
z
" transform="scale(0.015625)"/>
      </defs>
      <use xlink:href="#DejaVuSans-53"/>
      <use xlink:href="#DejaVuSans-65" x="63.476562"/>
      <use xlink:href="#DejaVuSans-63" x="125"/>
      <use xlink:href="#DejaVuSans-45" x="179.980469"/>
     </g>
    </g>
    <g id="line2d_38">
     <path d="M 266.934575 49.654687 
L 276.934575 49.654687 
L 286.934575 49.654687 
" style="fill: none; stroke: #000000; stroke-width: 1.5; stroke-linecap: square"/>
    </g>
    <g id="text_15">
     <!-- SecY→SecE -->
     <g transform="translate(294.934575 53.154687) scale(0.1 -0.1)">
      <defs>
       <path id="DejaVuSans-2192" d="M 5050 2147 
L 5050 1866 
L 3822 638 
L 3447 1013 
L 4175 1741 
L 366 1741 
L 366 2272 
L 4175 2272 
L 3447 3000 
L 3822 3375 
L 5050 2147 
z
" transform="scale(0.015625)"/>
      </defs>
      <use xlink:href="#DejaVuSans-53"/>
      <use xlink:href="#DejaVuSans-65" x="63.476562"/>
      <use xlink:href="#DejaVuSans-63" x="125"/>
      <use xlink:href="#DejaVuSans-59" x="179.980469"/>
      <use xlink:href="#DejaVuSans-2192" x="241.064453"/>
      <use xlink:href="#DejaVuSans-53" x="324.853516"/>
      <use xlink:href="#DejaVuSans-65" x="388.330078"/>
      <use xlink:href="#DejaVuSans-63" x="449.853516"/>
      <use xlink:href="#DejaVuSans-45" x="504.833984"/>
     </g>
    </g>
    <g id="PathCollection_13">
     <defs>
      <path id="mdfcd35cd69" d="M -3.535534 -6.123724 
L -7.071068 -0 
L -3.535534 6.123724 
L 3.535534 6.123724 
L 7.071068 0 
L 3.535534 -6.123724 
z
" style="stroke: #000000; stroke-width: 1.5"/>
     </defs>
     <g>
      <use xlink:href="#mdfcd35cd69" x="276.934575" y="65.207813" style="fill: #ffffff; stroke: #000000; stroke-width: 1.5"/>
     </g>
    </g>
    <g id="text_16">
     <!-- YidC -->
     <g transform="translate(294.934575 67.832813) scale(0.1 -0.1)">
      <defs>
       <path id="DejaVuSans-69" d="M 603 3500 
L 1178 3500 
L 1178 0 
L 603 0 
L 603 3500 
z
M 603 4863 
L 1178 4863 
L 1178 4134 
L 603 4134 
L 603 4863 
z
" transform="scale(0.015625)"/>
       <path id="DejaVuSans-64" d="M 2906 2969 
L 2906 4863 
L 3481 4863 
L 3481 0 
L 2906 0 
L 2906 525 
Q 2725 213 2448 61 
Q 2172 -91 1784 -91 
Q 1150 -91 751 415 
Q 353 922 353 1747 
Q 353 2572 751 3078 
Q 1150 3584 1784 3584 
Q 2172 3584 2448 3432 
Q 2725 3281 2906 2969 
z
M 947 1747 
Q 947 1113 1208 752 
Q 1469 391 1925 391 
Q 2381 391 2643 752 
Q 2906 1113 2906 1747 
Q 2906 2381 2643 2742 
Q 2381 3103 1925 3103 
Q 1469 3103 1208 2742 
Q 947 2381 947 1747 
z
" transform="scale(0.015625)"/>
       <path id="DejaVuSans-43" d="M 4122 4306 
L 4122 3641 
Q 3803 3938 3442 4084 
Q 3081 4231 2675 4231 
Q 1875 4231 1450 3742 
Q 1025 3253 1025 2328 
Q 1025 1406 1450 917 
Q 1875 428 2675 428 
Q 3081 428 3442 575 
Q 3803 722 4122 1019 
L 4122 359 
Q 3791 134 3420 21 
Q 3050 -91 2638 -91 
Q 1578 -91 968 557 
Q 359 1206 359 2328 
Q 359 3453 968 4101 
Q 1578 4750 2638 4750 
Q 3056 4750 3426 4639 
Q 3797 4528 4122 4306 
z
" transform="scale(0.015625)"/>
      </defs>
      <use xlink:href="#DejaVuSans-59"/>
      <use xlink:href="#DejaVuSans-69" x="57.458984"/>
      <use xlink:href="#DejaVuSans-64" x="85.242188"/>
      <use xlink:href="#DejaVuSans-43" x="148.71875"/>
     </g>
    </g>
   </g>
  </g>
 </g>
 <defs>
  <clipPath id="p90706d2d6f">
   <rect x="65.759375" y="7.2" width="183.024" height="181.8432"/>
  </clipPath>
 </defs>
</svg>
